<svg xmlns="http://www.w3.org/2000/svg"
shape-rendering="geometricPrecision"
width="4000" height="4000" viewBox="0 0 661 661">
  <metadata>null</metadata>

<path d="
M 30.877 518.539
C 31.834 516.612 33.635 516.855 35.507 516.846
C 38.101 516.834 42.027 516.459 42.183 520.024
C 42.698 531.803 42.19 543.711 42.23 555.503
C 42.242 558.834 42.232 562.167 42.274 565.498
C 42.293 566.999 42.031 568.958 42.441 570.391
C 49.949 570.105 57.495 570.294 65.009 570.283
C 68.121 570.278 72.611 569.475 75.553 570.549
C 78.56 571.646 77.831 578.689 76.266 580.676
C 72.622 581.135 68.673 580.732 64.998 580.732
C 57.331 580.734 49.664 580.722 41.997 580.742
C 39.101 580.75 32.482 582.142 30.872 579.064
C 30.351 577.051 30.744 574.582 30.744 572.503
C 30.743 567.836 30.732 563.17 30.73 558.503
C 30.726 549.671 30.727 540.839 30.693 532.007
C 30.676 527.738 29.903 522.707 30.877 518.539 Z"
opacity="1" fill="rgb(196,95,66)" fill-rule="evenodd" />
<path d="
M 88.491 530.611
C 88.586 529.805 88.718 529.109 89.146 528.408
C 91.115 527.25 96.378 527.172 98.026 528.843
C 98.562 529.787 98.365 530.952 98.369 532
C 98.379 534.168 98.402 536.336 98.412 538.504
C 98.436 543.306 98.45 548.108 98.451 552.91
C 98.452 556.614 98.284 560.454 99.475 564.015
C 102.775 573.881 117.931 576.167 123.235 566.724
C 125.391 562.885 125.324 558.74 125.307 554.472
C 125.285 548.816 125.277 543.16 125.259 537.504
C 125.25 534.821 124.815 531.698 125.434 529.08
C 126.773 526.921 133.005 527.214 134.648 528.826
C 135.343 529.89 135.058 531.477 135.072 532.689
C 135.102 535.46 135.106 538.23 135.13 541
C 135.232 552.628 137.437 567.906 127.476 576.381
C 115.916 586.216 95.522 582.004 90.166 567.52
C 88.271 562.395 88.612 556.878 88.595 551.501
C 88.573 544.56 88.271 537.538 88.491 530.611 Z"
opacity="1" fill="rgb(198,100,71)" fill-rule="evenodd" />
<path d="
M 114.465 190.623
C 114.881 187.627 114.673 184.502 114.897 181.481
C 115.243 176.829 115.935 172.096 116.992 167.551
C 122.816 142.513 136.44 119.086 156.831 103.075
C 164.559 97.007 172.801 91.544 181.925 87.77
C 222.089 71.16 268.649 76.939 302.562 104.53
C 309.169 109.906 315.326 115.696 320.709 122.316
C 322.449 124.456 324.691 126.609 326.002 129.044
C 323.946 128.343 321.966 126.661 320.013 125.657
C 315.614 123.396 311.039 121.367 306.427 119.585
C 290.244 113.334 272.82 110.565 255.495 111.91
C 245.271 112.704 234.923 115.132 225.364 118.829
C 217.082 122.032 209.322 126.466 202.117 131.621
C 195.912 136.059 190.184 141.235 185.076 146.893
C 159.571 175.145 152.273 215.18 159.484 251.811
C 167.351 291.778 188.595 326.877 213.972 358.174
C 219.515 365.011 225.55 371.392 231.599 377.775
C 234.416 380.747 238.036 383.515 240.358 386.89
C 239.254 386.696 237.801 384.869 236.949 384.108
C 234.161 381.613 231.453 379.031 228.677 376.525
C 218.239 367.103 207.853 357.613 198.056 347.512
C 188.372 337.528 178.508 327.774 169.491 317.168
C 148.116 292.025 130.194 263.945 120.608 232.171
C 116.632 218.989 113.795 204.469 114.465 190.623 Z"
opacity="1" fill="rgb(163,72,48)" fill-rule="evenodd" />
<path d="
M 148.34 528.469
C 149.933 526.838 153.045 527.395 155.155 527.479
C 155.949 527.51 156.865 527.456 157.589 527.828
C 158.13 528.105 158.496 528.66 158.783 529.176
C 161.473 534.019 163.084 539.792 165.088 544.95
C 168.037 552.544 171.261 560.038 174.149 567.652
C 174.698 567.417 174.955 565.775 175.166 565.242
C 176.053 562.99 176.918 560.732 177.779 558.47
C 181.369 549.046 184.817 539.447 188.877 530.215
C 189.239 529.394 189.628 528.425 190.435 527.938
C 191.029 527.579 191.776 527.555 192.447 527.51
C 194.391 527.379 198.466 526.78 199.458 528.995
C 199.372 530.498 198.525 531.934 197.957 533.312
C 196.904 535.868 195.785 538.4 194.72 540.953
C 191.207 549.367 187.609 557.804 184.424 566.347
C 183.301 569.359 182.002 572.309 180.833 575.304
C 180.113 577.152 179.305 579.354 177.792 580.705
C 175.882 581.182 171.615 581.561 170.021 580.279
C 168.944 579.413 168.462 577.874 167.907 576.662
C 166.792 574.228 165.741 571.762 164.69 569.298
C 160.839 560.268 157.038 551.171 153.475 542.023
C 152.314 539.041 151.044 536.067 149.71 533.158
C 149.079 531.784 147.981 530.024 148.34 528.469 Z"
opacity="1" fill="rgb(199,98,69)" fill-rule="evenodd" />
<path d="
M 304.013 133.88
C 301.948 133.916 299.865 133.394 297.81 133.201
C 293.189 132.767 288.557 132.392 283.911 132.401
C 266.368 132.434 248.003 135.898 232.506 144.39
C 204.619 159.673 187.247 188.091 183.265 219.333
C 181.604 232.357 182.441 245.088 184.11 258.046
C 185.041 265.276 186.787 272.269 188.154 279.41
C 188.618 281.832 189.357 284.181 189.887 286.529
C 190.207 287.948 189.912 289.191 190.738 290.554
C 192.266 300.624 194.843 311.029 198.605 320.5
C 199.785 323.469 201.077 326.396 202.439 329.286
C 203.123 330.738 204.648 332.484 204.832 334.071
C 203.735 333.603 202.839 331.61 202.181 330.659
C 200.243 327.852 198.387 325.022 196.615 322.103
C 189.892 311.028 183.484 300.057 178.158 288.219
C 164.431 257.71 158.662 221.111 169.146 188.735
C 171.732 180.752 175.411 173.138 179.645 165.909
C 184.813 157.084 192.028 149.4 199.581 142.614
C 206.831 136.099 215.307 130.898 224.311 127.157
C 230.598 124.545 236.936 122.249 243.616 120.862
C 261.23 117.203 279.43 118.707 296.658 123.518
C 302.09 125.036 307.32 127.159 312.518 129.328
C 313.874 129.894 315.193 130.549 316.547 131.114
C 316.992 131.3 317.812 131.43 318.054 131.911
C 313.324 132.231 308.719 133.488 304.013 133.88 Z"
opacity="1" fill="rgb(230,141,105)" fill-rule="evenodd" />
<path d="
M 304.013 133.88
C 298.762 135.606 293.195 136.455 287.922 138.216
C 277.406 141.727 267.397 146.099 257.957 151.946
C 223.377 173.368 197.775 209.734 191.229 250.133
C 189.06 263.515 189.348 277.137 190.738 290.554
C 189.912 289.191 190.207 287.948 189.887 286.529
C 189.357 284.181 188.618 281.832 188.154 279.41
C 186.787 272.269 185.041 265.276 184.11 258.046
C 182.441 245.088 181.604 232.357 183.265 219.333
C 187.247 188.091 204.619 159.673 232.506 144.39
C 248.003 135.898 266.368 132.434 283.911 132.401
C 288.557 132.392 293.189 132.767 297.81 133.201
C 299.865 133.394 301.948 133.916 304.013 133.88 Z"
opacity="1" fill="rgb(241,184,157)" fill-rule="evenodd" />
<path d="
M 199.962 264.612
C 200.473 259.185 201.258 253.961 202.154 248.601
C 202.238 248.421 202.21 248.039 202.408 248.062
C 202.666 248.093 202.925 249.097 203.085 249.326
C 204.292 251.06 205.254 252.933 206.36 254.74
C 209.488 259.854 211.66 264.209 211.721 270.304
C 211.771 275.159 211.575 280.036 211.984 284.88
C 212.949 296.299 215.647 307.509 220.054 318.085
C 224.117 327.837 229.684 337.795 236.652 345.781
C 238.658 348.08 242.945 353.856 246.223 350.324
C 248.308 348.077 249.092 344.841 249.818 341.949
C 250.969 337.364 251.796 332.719 252.555 328.053
C 253.076 324.85 253.429 320.896 255.872 318.525
C 257.392 318.933 258.454 320.627 259.407 321.811
C 261.914 324.927 265.866 328.701 265.8 332.984
C 265.757 335.737 263.791 338.237 262.444 340.515
C 260.506 343.794 258.928 347.28 257.64 350.861
C 255.539 356.704 254.394 362.878 253.958 369.063
C 253.777 371.643 254.261 374.476 253.894 376.998
C 251.914 374.892 248.937 373.283 246.681 371.439
C 242.04 367.646 237.502 363.37 233.594 358.816
C 228.291 352.636 223.194 346.209 218.886 339.286
C 205.333 317.503 198.009 290.288 199.962 264.612 Z"
opacity="1" fill="rgb(77,134,165)" fill-rule="evenodd" />
<path d="
M 205.894 231.575
C 207.534 225.495 210.675 219.372 213.514 213.776
C 220.027 200.942 228.743 189.081 238.868 178.862
C 242.276 175.421 246.04 172.362 249.761 169.274
C 251.565 167.777 253.08 165.95 255.537 165.726
C 256.808 166.385 257.473 167.979 258.671 168.802
C 260.25 169.888 263.985 169.406 265.082 167.759
C 264.033 166.617 262.109 166.239 261.662 164.564
C 260.57 160.478 267.248 159.233 270.004 159.458
C 271.664 159.593 273.128 160.455 274.735 160.789
C 276.296 161.115 277.923 161.001 279.468 161.424
C 282.929 162.373 286.702 164.804 289.271 167.251
C 290.488 168.41 294.347 170.594 294.202 172.392
C 293.766 174.683 290.159 174.745 288.46 174.646
C 288.949 176.116 289.645 177.301 289.33 178.898
C 287.226 182.517 282.5 179.606 279.923 178.594
C 278.93 178.203 277.851 178.017 276.811 177.808
C 275.42 177.528 272.531 177.35 273.146 175.287
C 274.728 173.842 277.186 174.106 278.678 172.554
C 279.013 171.397 279.073 169.924 278.717 168.771
C 276.769 165.931 272.228 167.373 269.437 167.856
C 269.559 171.307 268.989 175.298 264.982 176.255
C 263.668 176.568 262.214 176.291 260.887 176.199
C 260.003 176.538 259.252 177.617 258.358 178.104
C 255.745 179.524 252.827 180.534 250.813 182.84
C 249.775 184.028 249.146 185.547 250.005 187.037
C 252.235 190.909 258.235 191.642 261.757 193.819
C 262.614 195.519 261.836 197.625 263.369 199.146
C 264.353 199.45 265.553 199.224 266.274 198.479
C 266.948 196.979 265.984 195.489 266.498 194.057
C 267.442 193.005 269.126 192.181 269.718 190.874
C 269.731 188.827 269.282 186.541 269.865 184.543
C 271.259 179.769 277.931 180.57 280.869 183.287
C 282.108 184.433 282.518 186.101 283.567 187.363
C 285.388 186.697 287.177 184.528 289.114 184.595
C 291.818 186.322 291.482 190.029 293.707 192.098
C 295.598 193.857 299.285 194.387 300.542 196.777
C 301.46 198.52 299.329 201.031 300.286 202.57
C 302.734 203.92 305.567 206.052 303.57 209.066
C 303.08 209.42 301.843 208.953 301.298 208.828
C 298.972 208.296 296.483 208.337 294.257 207.438
C 294.219 205.612 296.146 204.181 296.43 202.359
C 295.754 201.743 293.897 202.736 293.114 203.035
C 289.909 204.262 286.419 203.225 283.262 204.396
C 283.135 205.827 284.828 206.064 285.871 206.693
C 286.36 207.804 286.081 209.138 286.651 210.213
C 288.33 210.38 290.476 210.358 291.757 211.567
C 292.25 212.474 291.423 213.151 290.719 213.661
C 289.391 214.625 285.964 216.858 284.277 216.565
C 283.219 216.143 282.543 215.139 281.453 214.779
C 277.247 215.03 277.659 218.064 275.387 220.534
C 273.85 222.206 271.045 221.903 269.468 223.559
C 267.55 225.574 268.152 228.926 266.513 231.107
C 264.657 233.577 261.202 234.6 259.951 237.595
C 258.872 240.179 259.766 243.453 259.888 246.146
C 259.946 247.415 260.086 249.07 258.786 249.758
C 257.679 250.058 256.67 249.179 256.091 248.301
C 254.714 246.21 255.145 243.5 253.02 241.822
C 250.49 239.823 246.571 241.071 243.693 241.431
C 242.313 241.604 240.836 241.604 239.513 242.069
C 235.108 243.62 233.78 249.089 233.773 253.217
C 233.769 255.898 234.597 258.653 237.406 259.61
C 240.856 260.785 241.81 257.495 244.114 255.858
C 245.314 255.006 247.51 254.388 248.766 255.392
C 250.356 258.049 246.814 261.301 247.307 264.028
C 249.06 264.534 251.803 264.541 253.056 266.007
C 254.351 268.381 252.749 271.658 253.683 274.194
C 254.341 275.981 256.406 276.223 258.038 276.433
C 259.102 276.57 260.32 276.866 261.379 276.597
C 262.69 276.264 263.97 275.12 265.101 274.406
C 267.03 273.186 269.247 272.165 271.536 271.927
C 273.061 272.231 273.932 273.993 275.545 274.337
C 279.196 275.117 283.619 274.04 287.005 275.83
C 289.482 277.138 290.623 280.107 293.071 281.523
C 296.217 283.342 300.232 283.079 302.73 286.063
C 304.701 288.419 304.169 291.505 305.198 294.155
C 308.592 294.305 310.722 295.823 313.73 297.151
C 315.912 298.114 318.238 298.599 320.47 299.411
C 321.44 299.764 324.882 300.741 324.853 301.98
C 324.354 302.612 323.279 302.648 322.567 302.911
C 320.44 303.698 318.241 304.268 316.102 305.025
C 308.359 307.765 300.776 310.281 293.377 313.927
C 287.628 316.76 282.254 320.136 277.245 324.133
C 275.898 325.208 274.651 326.383 273.337 327.493
C 273.032 327.751 272.55 328.489 272.154 328.36
C 270.925 325.333 268.247 323.048 266.261 320.541
C 263.596 317.178 261.838 313.408 259.711 309.721
C 258.477 307.582 256.782 305.475 256.264 303.017
C 255.675 300.216 255.851 296.773 256.896 294.107
C 258.405 290.258 262.342 285.021 258.971 280.955
C 256.495 279.944 253.689 280.318 251.401 278.699
C 249.245 277.173 248.307 274.686 246.648 272.726
C 245.209 271.024 242.986 269.949 241.015 268.99
C 234.725 265.931 227.346 266.214 222.399 260.435
C 220.505 258.223 220.433 255.138 219.456 252.501
C 218.323 249.445 216.448 246.612 214.91 243.748
C 214.28 242.575 213.005 238.653 211.448 239.369
C 211.916 244.506 215.421 248.849 215.552 254.117
C 213.189 254.636 211.89 251.415 211.026 249.764
C 208.979 245.85 208.116 241.414 207.075 237.161
C 206.633 235.353 205.78 233.455 205.894 231.575 Z"
opacity="1" fill="rgb(130,158,113)" fill-rule="evenodd" />
<path d="
M 242.333 518.555
C 242.545 517.908 242.416 518.237 242.73 517.57
C 243.632 516.605 244.795 516.609 246.048 516.586
C 248.443 516.541 253.22 515.691 253.705 519.048
C 254.189 522.396 253.731 526.115 253.728 529.499
C 253.723 536.833 253.65 544.168 253.696 551.502
C 253.75 560.015 256.55 568.127 265.477 570.75
C 267.727 571.411 270.303 571.818 272.64 571.506
C 274.93 571.2 277.148 570.731 279.242 569.711
C 288.934 564.991 287.853 553.51 287.92 544.505
C 287.948 540.668 288.087 536.832 288.095 532.995
C 288.104 529.018 288.026 525.034 288.13 521.059
C 288.18 519.168 288.223 517.208 290.451 516.78
C 292.526 516.381 297.598 515.79 298.877 517.787
C 299.694 519.064 299.455 520.753 299.439 522.192
C 299.406 525.216 299.455 528.241 299.447 531.265
C 299.43 537.306 299.6 543.338 299.551 549.382
C 299.496 556.202 299.008 563.18 295.339 569.154
C 285.212 585.642 257.607 586.952 246.959 570.193
C 240.624 560.221 242.247 547.786 242.164 536.51
C 242.122 530.714 241.345 524.275 242.333 518.555 Z"
opacity="1" fill="rgb(198,98,67)" fill-rule="evenodd" />
<path d="
M 261.424 367.102
C 262.99 359.005 264.942 351.608 269.138 344.395
C 275.836 332.878 287.378 324.637 299.201 319.076
C 318.665 309.92 340.312 306.211 360.812 300.01
C 389.727 291.264 417.28 278.548 442.685 262.184
C 478.656 239.015 514.209 202.976 515.273 157.485
C 515.656 141.096 511.944 124.098 502.948 110.217
C 499.853 105.44 496.448 100.837 492.409 96.813
C 491.055 95.465 489.618 94.207 488.152 92.985
C 487.626 92.546 487.143 92.058 486.628 91.607
C 486.382 91.392 485.649 91.114 485.919 90.93
C 486.263 90.696 487.832 91.903 488.091 92.071
C 489.941 93.271 491.843 94.389 493.681 95.612
C 501.573 100.865 509.218 106.317 515.737 113.277
C 529.522 127.995 538.975 145.306 543.792 164.879
C 545.299 171.003 547.047 177.815 546.904 184.164
C 546.715 192.574 543.925 201.475 540.975 209.288
C 535.55 223.66 528.854 237.497 520.016 250.115
C 496.472 283.727 461.467 306.907 424.819 324.16
C 410.561 330.873 396.073 337.022 381.681 343.436
C 365.33 350.723 349.005 358.103 334.38 368.572
C 317.737 380.486 303.825 398.13 303.637 419.454
C 303.567 427.333 305.584 434.647 308.504 441.898
C 309.441 444.224 310.515 446.536 311.698 448.748
C 311.963 449.243 313.734 452.265 313.49 452.305
C 311.683 450.871 310.286 448.998 308.623 447.408
C 302.676 441.724 296.502 436.26 290.314 430.836
C 287.119 428.036 283.868 425.299 280.661 422.513
C 278.611 420.733 276.473 419.158 274.853 416.942
C 272.885 414.247 271.413 411.122 269.89 408.162
C 263.424 395.601 260.077 381.238 261.424 367.102 Z"
opacity="1" fill="rgb(198,101,72)" fill-rule="evenodd" />
<path d="
M 283.388 152.549
C 284.046 150.859 285.634 149.981 287.166 149.165
C 290.82 147.218 294.984 146.058 298.994 145.101
C 311.897 142.02 324.995 140.716 338.249 141.493
C 341.83 141.703 346.353 141.213 349.786 142.19
C 349.752 142.711 348.946 143.249 348.604 143.642
C 347.689 144.697 346.517 146.023 346.256 147.436
C 345.795 149.933 347.274 152.864 346.379 155.229
C 345.763 156.858 344.463 158.195 343.681 159.75
C 342.705 161.693 342.295 163.915 340.581 165.386
C 338.466 167.201 335.586 167.928 333.055 168.937
C 328.901 170.592 324.309 172.301 320.665 174.939
C 317.277 177.393 316.72 182.372 313.288 184.665
C 311.583 185.156 309.552 184.133 308.107 183.305
C 303.753 180.808 301.36 176.461 301.742 171.454
C 301.925 169.042 303.539 166.447 303.207 164.05
C 302.893 161.778 300.527 159.217 299.043 157.59
C 294.84 152.982 289.138 156.964 284.197 154.881
C 283.485 154.226 283.313 153.497 283.388 152.549 Z"
opacity="1" fill="rgb(130,157,114)" fill-rule="evenodd" />
<path d="
M 470.933 340.38
C 469.503 340.471 468.384 341.615 467.267 342.408
C 464.913 344.08 462.725 345.972 460.297 347.546
C 450.906 353.636 441.433 359.529 431.64 364.965
C 420.184 371.326 408.489 377.301 396.782 383.187
C 385.852 388.681 374.958 394.616 365.45 402.392
C 358.145 408.368 352.195 415.34 346.783 423.023
C 343.656 427.463 341.103 432.264 339.102 437.309
C 336.445 444.008 333.961 451.237 333.025 458.405
C 332.627 461.448 332.128 464.432 332.845 467.43
C 332.488 467.955 332.151 468.571 331.464 468.268
C 329.118 465.199 327.317 461.471 325.352 458.14
C 322.709 453.657 319.837 449.285 317.576 444.589
C 314.487 438.175 311.687 431.664 310.902 424.507
C 308.435 402.022 324.326 383.914 341.712 372.126
C 360.215 359.581 381.283 351.308 401.688 342.449
C 425.54 332.092 449.541 321.159 471.112 306.491
C 490.449 293.341 507.927 277.95 522.008 259.188
C 526.637 253.02 530.86 246.423 534.767 239.778
C 536.898 236.154 538.673 232.088 541.12 228.694
C 540.582 232.236 538.718 235.744 537.576 239.128
C 534.406 248.521 530.681 257.747 526.035 266.515
C 516.575 284.367 505.433 300.997 492.453 316.502
C 485.673 324.601 478.866 333.359 470.933 340.38 Z"
opacity="1" fill="rgb(234,155,120)" fill-rule="evenodd" />
<path d="
M 321.92 190.576
C 323.989 184.138 330.111 178.431 335.834 175.074
C 340.219 172.501 344.584 170.798 348.018 166.895
C 350.341 164.255 352.432 160.384 353.023 156.899
C 353.437 154.457 352.308 151.937 352.819 149.576
C 353.226 147.699 355.721 145.673 357.412 144.898
C 359.468 143.957 362.611 145.54 364.649 146.07
C 371.121 147.754 377.174 149.816 383.224 152.673
C 385.041 153.531 386.919 154.252 388.709 155.164
C 389.27 155.45 390.293 155.709 390.466 156.381
C 389.225 158.009 386.678 158.365 385.007 159.435
C 382.792 160.854 381.381 163.062 379.366 164.655
C 375.59 165.232 372.189 163.486 368.414 165.232
C 362.239 168.088 359.922 174.345 355.688 179.086
C 353.146 181.931 349.722 184.119 346.85 186.629
C 343.366 189.674 340.229 193.037 336.273 195.516
C 332.308 198.002 326.204 200.602 322.819 195.772
C 322.35 195.104 321.988 194.389 321.822 193.586
C 321.616 192.585 321.702 191.565 321.92 190.576 Z"
opacity="1" fill="rgb(74,135,166)" fill-rule="evenodd" />
<path d="
M 326.695 290.479
C 327.651 288.982 329.305 288.175 330.892 287.483
C 334.537 285.891 338.49 285.302 342.322 284.341
C 344.184 283.875 346.609 282.917 348.53 283.343
C 352.94 284.321 356.393 287.78 361.067 288.371
C 364.217 288.769 367.483 288.461 370.612 287.953
C 371.193 287.859 373.346 287.364 373.525 288.162
C 373.652 288.73 370.404 289.262 369.983 289.405
C 365.864 290.808 361.653 291.929 357.523 293.315
C 351.138 295.458 344.489 297.188 337.919 298.678
C 336.336 299.037 334.796 299.498 333.234 299.934
C 332.809 300.053 332.132 300.361 331.752 300.132
C 330.979 296.391 327.909 293.932 326.695 290.479 Z"
opacity="1" fill="rgb(70,129,160)" fill-rule="evenodd" />
<path d="
M 470.933 340.38
C 469.697 342.381 467.716 343.933 466.055 345.572
C 463.721 347.875 461.472 350.264 459.158 352.588
C 449.528 362.262 439.319 371.533 428.973 380.434
C 412.373 394.716 396.095 409.395 379.63 423.831
C 363.667 437.826 347.007 451.543 332.845 467.43
C 332.128 464.432 332.627 461.448 333.025 458.405
C 333.961 451.237 336.445 444.008 339.102 437.309
C 341.103 432.264 343.656 427.463 346.783 423.023
C 352.195 415.34 358.145 408.368 365.45 402.392
C 374.958 394.616 385.852 388.681 396.782 383.187
C 408.489 377.301 420.184 371.326 431.64 364.965
C 441.433 359.529 450.906 353.636 460.297 347.546
C 462.725 345.972 464.913 344.08 467.267 342.408
C 468.384 341.615 469.503 340.471 470.933 340.38 Z"
opacity="1" fill="rgb(242,187,160)" fill-rule="evenodd" />
<path d="
M 335.89 128.682
C 355.603 101.607 385.807 83.402 418.981 79.124
C 427.798 77.987 437.311 77.382 446.156 78.595
C 454.232 79.702 462.247 83.718 469.16 87.852
C 478.928 93.694 487.561 100.948 494.258 110.218
C 509.957 131.951 512.043 161.402 502.3 185.998
C 501.658 187.621 501.024 191.017 499.551 192.06
C 499.046 187.715 498.995 183.418 498.098 179.098
C 496.125 169.587 492.542 160.158 487.692 151.737
C 468.479 118.376 427.717 100.674 390.097 106.827
C 377.112 108.951 364.715 112.774 352.936 118.674
C 348.484 120.905 343.742 123.233 339.665 126.104
C 338.751 126.747 337.901 127.42 337.018 128.108
C 336.813 128.268 336.175 128.916 335.89 128.682 Z"
opacity="1" fill="rgb(155,68,44)" fill-rule="evenodd" />
<path d="
M 471.754 230.282
C 472.526 229.286 472.161 228.033 472.132 226.814
C 472.09 225.074 472.282 223.31 472.308 221.567
C 472.438 212.889 471.276 204.48 469.405 196.026
C 465.085 176.51 452.752 158.243 435.895 147.42
C 425.104 140.491 412.672 136.51 399.985 135.01
C 393.306 134.219 386.34 134.372 379.694 135.371
C 377.957 135.632 376.212 135.953 374.526 136.45
C 373.675 136.702 372.851 137.37 371.979 137.422
C 367.717 136.706 363.725 134.792 359.472 134.01
C 356.229 133.414 353.006 132.793 349.742 132.328
C 347.954 132.073 345.93 132.128 344.216 131.597
C 346.298 129.258 349.965 127.97 352.72 126.58
C 359.561 123.129 366.405 120 373.735 117.712
C 403.536 108.41 435.621 112.273 460.712 131.481
C 477.689 144.477 489.233 164.301 491.949 185.512
C 492.567 190.335 492.66 195.143 492.467 199.999
C 492.396 201.807 492.559 203.752 492.041 205.506
C 491.166 208.472 488.542 211.056 486.702 213.464
C 482.281 219.251 477.277 225.515 471.754 230.282 Z"
opacity="1" fill="rgb(207,108,76)" fill-rule="evenodd" />
<path d="
M 346.892 519.053
C 348.385 515.72 355.422 517.103 358.437 517.07
C 365.958 516.988 373.478 516.958 381.003 516.944
C 384.663 516.938 388.946 516.332 392.53 517.15
C 395.411 517.807 394.855 520.911 394.877 523.149
C 394.888 524.265 395.035 525.629 394.404 526.6
C 392.272 528.718 387.284 527.727 384.496 527.736
C 378.663 527.754 372.829 527.753 366.996 527.761
C 364.175 527.766 360.768 527.299 358.029 528.003
C 358.095 533.404 358.058 538.833 358.132 544.247
C 359.982 545.029 363.463 544.367 365.501 544.381
C 370.957 544.418 376.413 544.385 381.869 544.406
C 384.188 544.414 387.225 543.869 389.46 544.531
C 392.094 545.313 392.277 552.703 389.934 553.859
C 387.856 554.883 384.751 554.304 382.498 554.303
C 376.848 554.299 371.197 554.354 365.547 554.391
C 363.466 554.404 359.991 553.812 358.154 554.898
C 358.178 559.96 357.42 565.426 358.08 570.434
C 366.508 569.93 375.061 570.302 383.504 570.294
C 386.706 570.291 391.607 569.407 394.479 570.985
C 395.255 571.621 395.329 572.706 395.418 573.645
C 395.618 575.772 396.35 579.264 394.204 580.623
C 390.408 581.506 385.891 580.865 381.997 580.851
C 374.33 580.823 366.663 580.859 358.997 580.85
C 356.496 580.847 353.995 580.841 351.495 580.856
C 350.074 580.865 348.571 581.006 347.542 579.83
C 346.559 578.705 346.844 576.885 346.839 575.496
C 346.827 571.83 346.846 568.162 346.86 564.496
C 346.897 554.329 346.843 544.164 346.796 533.997
C 346.774 529.228 346.014 523.74 346.892 519.053 Z"
opacity="1" fill="rgb(136,158,115)" fill-rule="evenodd" />
<path d="
M 348.46 253.102
C 348.968 249.378 350.461 245.814 352.678 242.761
C 354.179 240.695 356.221 238.991 357.531 236.804
C 359.163 234.081 359.959 230.408 362.912 228.707
C 365.599 227.158 369.444 227.233 372.398 226.093
C 376.748 224.414 382.575 221.977 387.312 223.494
C 390.755 224.597 389.605 227.689 391.643 229.849
C 393.485 231.8 396.903 232.715 399.321 233.686
C 400.059 233.981 403.006 235.539 403.639 235.236
C 404.421 233.715 404.879 231.93 406.345 230.897
C 407.604 230.888 408.79 231.082 409.97 231.537
C 410.87 231.884 411.726 232.339 412.641 232.647
C 416.372 233.902 425.062 236.081 425.829 230.143
C 426.034 228.55 426.105 226.868 426.086 225.263
C 424.936 224.969 423.469 225.423 422.293 225.531
C 419.766 225.763 416.577 225.378 414.721 223.464
C 413.445 222.149 413.576 220.28 412.588 218.849
C 411.749 218.757 411.087 218.738 410.26 218.916
C 409.191 220.69 409.932 223.867 407.864 224.917
C 405.659 225.292 404.355 223.374 403.399 221.6
C 401.768 218.571 400.383 216.38 397.849 213.98
C 396.765 212.953 395.401 211.815 393.834 212.031
C 395.039 214.423 398.142 215.889 398.786 218.603
C 399.046 219.698 397.884 221.814 396.67 221.853
C 395.307 221.121 394.412 219.466 393.294 218.408
C 391.019 216.255 388.706 214.308 386.565 212.006
C 383.421 213.3 379.181 212.575 376.557 214.998
C 373.117 218.176 372.683 223.741 367.583 225.124
C 364.593 225.935 360.491 225.684 358.583 222.895
C 357.979 222.013 358.06 220.919 358.076 219.9
C 358.114 217.539 358.065 214.731 359.234 212.622
C 361.711 210.048 366.665 213.623 369.431 211.633
C 370.774 209.468 368.447 206.705 367.467 204.92
C 369.358 203.06 371.963 202.471 374.135 201.025
C 375.805 199.912 376.943 198.219 378.491 196.967
C 379.764 195.939 381.371 195.327 382.815 194.59
C 383.252 193.36 382.31 191.51 382.454 190.156
C 383.092 188.957 384.449 188.732 385.697 188.89
C 387.258 189.989 386.904 192.54 388.296 193.572
C 390.636 193.514 392.979 193.037 395.325 192.876
C 396.349 192.806 397.717 192.861 398.541 192.167
C 400.096 190.858 400.34 188.547 401.417 186.917
C 402.455 185.88 403.947 185.711 405.162 184.981
C 405.394 184.841 406.08 184.268 405.714 183.99
C 402.25 183.84 397.988 182.365 399.235 177.998
C 399.563 176.848 401.996 175.153 401.605 174.121
C 400.925 173.88 400.279 173.824 399.561 173.781
C 397.484 174.432 394.612 177.301 394.454 179.59
C 394.373 180.769 395.043 181.866 395.132 183.027
C 395.359 186.013 393.523 190.32 390.102 190.407
C 388.046 189.488 387.798 186.487 385.627 185.693
C 383.924 185.611 382.602 186.688 380.965 186.809
C 378.195 186.382 377.554 179.506 378.866 177.657
C 380.159 175.834 382.279 174.634 383.813 173.02
C 385.715 171.021 387.089 168.584 389.088 166.666
C 391.455 164.393 394.168 163.256 397.33 162.572
C 398.376 162.346 399.46 161.87 400.537 161.959
C 407.405 165.093 413.503 170.6 419.028 175.639
C 432.41 187.843 443.042 202.479 450.755 218.859
C 453.25 224.158 455.056 229.834 456.656 235.455
C 457.193 237.34 458.563 240.138 458.147 242.106
C 453.309 245.925 448.321 249.61 443.108 252.901
C 441.887 253.672 440.651 254.436 439.469 255.266
C 438.982 255.608 438.173 256.365 437.592 256.391
C 435.147 252.092 432.551 247.867 430.057 243.595
C 429.119 241.989 427.916 239.7 425.859 239.75
C 426.19 242.295 427.439 244.488 428.445 246.812
C 429.558 249.381 430.528 252.019 431.469 254.655
C 431.908 255.884 432.334 257.089 432.893 258.271
C 433.044 258.593 433.52 259.308 433.293 259.644
C 429.096 261.448 425.272 264.486 421.267 266.7
C 413.52 270.983 405.55 275.018 397.418 278.52
C 394.493 279.78 391.528 280.959 388.629 282.281
C 387.712 282.699 386.13 283.796 385.143 283.67
C 382.07 282.512 380.035 280.924 376.498 281.164
C 371.655 281.493 365.953 284.131 361.112 282.822
C 358.711 282.172 356.585 279.81 354.991 278.026
C 352.497 275.237 350.308 272.053 349.233 268.426
C 348.512 265.996 348.734 263.39 348.696 260.888
C 348.657 258.301 348.348 255.682 348.46 253.102 Z
M 414.985 213.623
C 414.989 214.181 415.032 214.513 415.275 215.019
C 416.62 216.214 418.156 215.385 419.641 214.887
C 421.595 214.231 423.494 213.838 425.531 214.427
C 427.825 215.09 430.722 216.937 433.126 215.67
C 433.836 214.892 434.064 214.01 433.573 213.01
C 432.535 211.798 430.967 211.133 429.769 210.088
C 428.556 209.029 427.749 207.5 426.485 206.544
C 425.266 207.422 424.212 208.556 422.949 209.351
C 421.718 209.197 420.412 207.477 419.416 206.761
C 416.603 206.469 415.214 211.534 414.985 213.623 Z"
opacity="1" fill="rgb(131,159,115)" fill-rule="evenodd" />
<path d="
M 358.454 197.62
C 358.629 196.405 358.506 195.156 358.847 193.967
C 359.784 192.703 361.152 192.608 362.589 192.297
C 366.507 194.192 362.271 200.728 358.643 199.021
C 358.452 198.528 358.449 198.149 358.454 197.62 Z"
opacity="1" fill="rgb(110,148,106)" fill-rule="evenodd" />
<path d="
M 363.373 187.048
C 364.175 185.209 366.873 184.319 368.554 185.591
C 369.92 186.625 369.623 188.443 370.148 189.902
C 371.111 192.58 374.751 194.744 374.546 197.802
C 373.201 200.696 367.884 201.387 365.384 199.971
C 365.224 197.871 366.667 195.917 366.32 193.651
C 365.691 192.918 364.757 192.554 364.132 191.826
C 363.081 190.603 363.117 188.571 363.373 187.048 Z"
opacity="1" fill="rgb(118,151,113)" fill-rule="evenodd" />
<path d="
M 371.979 137.422
C 372.851 137.37 373.675 136.702 374.526 136.45
C 376.212 135.953 377.957 135.632 379.694 135.371
C 386.34 134.372 393.306 134.219 399.985 135.01
C 412.672 136.51 425.104 140.491 435.895 147.42
C 452.752 158.243 465.085 176.51 469.405 196.026
C 471.276 204.48 472.438 212.889 472.308 221.567
C 472.282 223.31 472.09 225.074 472.132 226.814
C 472.161 228.033 472.526 229.286 471.754 230.282
C 470.897 231.424 468.484 234.246 467.02 234.467
C 463.742 225.77 461.278 217.035 457.073 208.677
C 446.103 186.875 428.27 167.666 407.87 154.405
C 400.102 149.356 391.899 145.191 383.38 141.579
C 381.192 140.651 378.868 139.724 376.582 139.073
C 375.238 138.69 373.078 138.25 371.979 137.422 Z"
opacity="1" fill="rgb(240,183,155)" fill-rule="evenodd" />
<path d="
M 405.865 578.016
C 408.697 572.279 411.02 566.245 413.649 560.408
C 416.501 554.074 419.606 547.775 422.16 541.315
C 423.434 538.094 424.879 534.885 426.35 531.747
C 427.008 530.343 427.612 528.438 429.122 527.724
C 431.312 526.689 436.497 526.713 438.003 528.796
C 439.054 530.249 439.629 532.183 440.294 533.836
C 441.529 536.906 442.919 539.909 444.166 542.974
C 447.322 550.734 451.006 558.294 454.376 565.964
C 455.632 568.824 457 571.632 458.334 574.455
C 459.012 575.889 460.061 577.675 459.819 579.307
C 459.005 580.898 456.865 580.74 455.341 580.736
C 454.177 580.733 452.34 581.051 451.286 580.508
C 450.206 579.951 449.624 578.442 449.148 577.402
C 448.037 574.972 447.201 572.338 445.837 570.036
C 445.363 569.631 444.591 569.786 443.989 569.794
C 442.325 569.815 440.661 569.788 438.997 569.791
C 432.534 569.803 425.926 569.435 419.479 569.91
C 418.009 573.138 417.056 578.156 414.184 580.444
C 412.151 581.349 407.331 581.292 405.697 579.68
C 405.512 579.027 405.644 578.649 405.865 578.016 Z
M 423.472 560.57
C 423.135 561.325 423.196 560.968 423.187 561.622
C 427.624 561.653 432.063 561.763 436.502 561.74
C 438.368 561.73 440.558 562.019 442.376 561.647
C 442.48 561.278 441.838 560.386 441.683 560.032
C 441.111 558.722 440.534 557.411 439.974 556.095
C 438.444 552.498 436.763 548.955 435.307 545.327
C 434.503 543.322 433.873 540.608 432.483 538.962
C 430.05 546.203 426.676 553.62 423.472 560.57 Z"
opacity="1" fill="rgb(133,157,116)" fill-rule="evenodd" />
<path d="
M 472.493 531.115
C 472.588 530.184 472.627 529.345 473.171 528.55
C 474.376 527.389 476.021 527.597 477.58 527.594
C 480.555 527.589 483.53 527.652 486.505 527.669
C 494.98 527.716 504.538 526.533 511.106 533.09
C 520.023 541.994 516.759 559.451 503.604 561.905
C 506.409 566.339 510.42 570.496 513.818 574.515
C 514.871 575.761 517.45 577.928 516.763 579.716
C 514.797 581.133 512.045 580.864 509.723 580.78
C 508.747 580.745 507.57 580.796 506.733 580.215
C 505.055 579.052 503.802 576.894 502.482 575.355
C 499.184 571.509 496.25 567.329 492.893 563.551
C 491.805 563.195 490.61 563.491 489.487 563.537
C 487.112 563.632 484.715 563.692 482.341 563.719
C 482.611 566.929 482.328 570.272 482.345 573.5
C 482.356 575.421 482.709 577.71 482.118 579.562
C 480.676 581.495 473.996 581.465 472.797 579.241
C 472.314 577.723 472.459 575.717 472.437 574.118
C 472.391 570.911 472.399 567.702 472.387 564.494
C 472.345 553.368 472.697 542.234 472.493 531.115 Z
M 482.251 536.829
C 481.713 542.714 482.198 548.806 482.168 554.717
C 483.246 555.432 486.171 554.91 487.499 554.92
C 492.512 554.956 499.98 556.258 503.872 552.307
C 508.247 547.866 506.032 539.279 500.279 537.273
C 498.153 536.531 495.726 536.701 493.508 536.71
C 489.754 536.727 486.002 536.743 482.251 536.829 Z"
opacity="1" fill="rgb(131,155,115)" fill-rule="evenodd" />
<path d="
M 527.878 529.558
C 528.09 529.035 527.973 529.297 528.231 528.773
C 528.824 527.793 530.022 527.647 531.082 527.636
C 533.389 527.614 535.695 527.599 538.002 527.596
C 545.503 527.589 553.005 527.588 560.506 527.619
C 563.211 527.631 567.5 526.844 570.001 527.928
C 572.093 528.835 572.194 535.499 570.119 536.379
C 565.063 537.252 559.471 536.595 554.339 536.724
C 554.983 545.862 554.287 555.327 554.278 564.498
C 554.275 567.665 554.273 570.833 554.278 574
C 554.281 575.802 554.509 577.755 554.068 579.517
C 552.566 581.452 545.75 581.615 544.762 579.108
C 544.097 575.764 544.596 571.899 544.599 568.493
C 544.606 561.33 544.675 554.166 544.647 547.002
C 544.634 543.67 544.994 540.09 544.528 536.79
C 540.86 536.612 537.173 536.674 533.501 536.662
C 532.177 536.658 529.826 537.054 528.709 536.179
C 527.172 534.975 527.524 531.285 527.878 529.558 Z"
opacity="1" fill="rgb(133,158,117)" fill-rule="evenodd" />
<path d="
M 585.738 528.896
C 587.619 526.882 592.695 526.946 594.669 528.785
C 595.596 530.156 595.095 532.888 595.094 534.496
C 595.09 539.509 594.967 544.514 594.917 549.524
C 595.161 549.81 596.061 549.588 596.436 549.581
C 598.127 549.547 599.81 549.459 601.502 549.458
C 607.88 549.454 614.276 549.325 620.644 549.616
C 621.159 548.447 620.415 545.472 620.411 544.085
C 620.395 539.292 619.545 533.364 620.871 528.722
C 622.801 526.852 627.994 527.313 630.015 528.849
C 630.705 529.98 630.34 531.717 630.331 532.996
C 630.309 535.829 630.343 538.663 630.351 541.497
C 630.375 550.33 630.315 559.165 630.292 567.998
C 630.286 570.499 630.279 573 630.301 575.5
C 630.312 576.822 630.579 578.428 630.101 579.682
C 628.373 581.364 621.909 581.345 620.787 579.08
C 620.227 576.33 620.647 573.087 620.66 570.281
C 620.678 566.52 620.227 562.416 620.677 558.696
C 616.154 558.335 611.538 558.584 607.002 558.572
C 603.144 558.562 599.151 558.276 595.313 558.701
C 595.377 563.963 595.251 569.236 595.265 574.501
C 595.27 576.422 595.818 579.015 594.269 580.448
C 592.066 581.151 586.758 581.726 585.69 579.09
C 585.282 575.991 585.605 572.625 585.6 569.496
C 585.589 562.831 585.698 556.167 585.709 549.502
C 585.717 545.17 585.7 540.837 585.646 536.506
C 585.615 534.035 585.281 531.33 585.738 528.896 Z"
opacity="1" fill="rgb(131,157,117)" fill-rule="evenodd" />

</svg>