<svg xmlns="http://www.w3.org/2000/svg" viewBox="0 0 100 100" width="100" height="100">
  <defs>
    <linearGradient id="hG" x1="0%" y1="0%" x2="100%" y2="100%">
      <stop offset="0%" style="stop-color:#c97a4a"/>
      <stop offset="100%" style="stop-color:#a85c30"/>
    </linearGradient>
    <linearGradient id="eG" x1="0%" y1="0%" x2="100%" y2="100%">
      <stop offset="0%" style="stop-color:#3db35e"/>
      <stop offset="100%" style="stop-color:#2a8a44"/>
    </linearGradient>
    <clipPath id="eC"><circle cx="62" cy="54" r="28"/></clipPath>
  </defs>

  <!-- Heart -->
  <path d="M38,72 C38,72 8,54 6,38 C4,24 14,16 24,20 C30,23 35,29 38,34 C41,29 46,23 52,20 C62,16 72,24 70,38 C68,54 38,72 38,72Z" fill="url(#hG)"/>

  <!-- Globe -->
  <circle cx="62" cy="54" r="28" fill="url(#eG)"/>
  <path d="M34,54 Q62,48 90,54" fill="none" stroke="rgba(255,255,255,0.3)" stroke-width="0.8" clip-path="url(#eC)"/>
  <path d="M34,62 Q62,68 90,62" fill="none" stroke="rgba(255,255,255,0.3)" stroke-width="0.8" clip-path="url(#eC)"/>
  <path d="M34,46 Q62,40 90,46" fill="none" stroke="rgba(255,255,255,0.3)" stroke-width="0.8" clip-path="url(#eC)"/>
  <path d="M62,26 Q62,54 62,82"  fill="none" stroke="rgba(255,255,255,0.3)" stroke-width="0.8" clip-path="url(#eC)"/>
  <path d="M62,26 Q46,54 46,82"  fill="none" stroke="rgba(255,255,255,0.2)" stroke-width="0.7" clip-path="url(#eC)"/>
  <path d="M62,26 Q78,54 78,82"  fill="none" stroke="rgba(255,255,255,0.2)" stroke-width="0.7" clip-path="url(#eC)"/>

  <!-- White U -->
  <path d="M30,22 C30,22 30,46 30,50 C30,62 36,70 44,70 C52,70 58,62 58,50 C58,46 58,22 58,22" fill="none" stroke="white" stroke-width="7" stroke-linecap="round"/>

  <!-- Leaf sprout -->
  <path d="M58,22 C59,14 66,8 76,6 C74,14 67,20 58,22Z" fill="#96d9a8"/>
  <path d="M58,22 C56,14 50,10 44,10 C46,18 52,22 58,22Z" fill="#b2e4be" opacity="0.8"/>
</svg>
